<svg width="357" height="323" viewBox="0 0 357 323" fill="none" xmlns="http://www.w3.org/2000/svg">
<g opacity="0.08">
<path d="M151.698 139.651C186.577 139.651 218.063 151.507 240.945 170.682C264.002 190.004 278.313 216.764 278.586 246.353C278.93 283.549 247.204 306.858 205.875 317.063C190.016 320.979 172.689 322.945 155.269 322.999C137.93 323.053 120.468 321.198 104.249 317.476C60.209 307.366 25.2151 283.504 24.8104 246.459C24.7872 244.354 24.7755 246.948 24.7755 245.49C24.7755 216.328 38.9725 189.966 61.8532 170.834C84.5782 151.83 115.914 139.981 150.381 139.683C152.817 139.662 150.225 139.651 151.698 139.651Z" fill="#A7B5C8"/>
<path d="M18.7264 45.3993C28.4505 41.6073 39.4909 43.2305 49.4779 48.9211C58.5334 54.0802 66.8278 62.7367 72.2134 73.6655V73.6659C77.5948 84.5869 79.1305 95.8674 77.2624 105.276C75.1992 115.667 69.0474 123.995 59.2961 127.798C49.5722 131.59 38.5318 129.967 28.5443 124.277C19.489 119.117 11.1947 110.461 5.80929 99.5322C0.427689 88.6109 -1.10807 77.33 0.760053 67.9213C2.82325 57.5309 8.97536 49.2024 18.7264 45.3993ZM127.108 0.278708C138.6 -1.21414 149.747 3.37528 158.478 12.0018C166.474 19.903 172.499 31.3604 174.655 44.4989V44.4993C176.805 57.5999 174.713 70.089 169.592 79.6912C163.994 90.1881 154.768 97.4293 143.243 98.9264C131.751 100.419 120.604 95.8298 111.873 87.2032C103.877 79.3019 97.8524 67.8447 95.6958 54.7064V54.7058C93.5457 41.6052 95.638 29.1163 100.759 19.5139C106.357 9.017 115.583 1.7758 127.108 0.278708ZM266.18 28.0005C275.791 32.0682 281.651 40.5669 283.354 51.0181C284.896 60.4816 282.975 71.7121 277.225 82.4649C271.467 93.2328 262.87 101.658 253.625 106.574C243.442 111.989 232.355 113.312 222.78 109.26C213.169 105.192 207.309 96.6937 205.606 86.2423C204.064 76.7788 205.985 65.5481 211.735 54.7957C217.493 44.0275 226.09 35.6023 235.335 30.6866C245.518 25.2716 256.605 23.9482 266.18 28.0005ZM348.302 97.1873C355.842 103.858 358.196 113.588 355.906 123.926C353.825 133.317 347.809 143.357 338.352 151.817C328.915 160.26 317.657 165.662 307.087 167.57C295.475 169.666 284.528 167.633 277 160.974C269.46 154.303 267.106 144.572 269.396 134.235C271.477 124.844 277.493 114.804 286.95 106.344C296.387 97.9008 307.645 92.4992 318.216 90.591C329.828 88.4947 340.775 90.5282 348.302 97.1873Z" fill="#A7B5C8"/>
</g>
</svg>
